<svg xmlns="http://www.w3.org/2000/svg" viewBox="0 0 48.43 48.32"><defs><style>.cls-1{fill:#3664ad;}.cls-2{fill:#3bb0e5;}.cls-3{fill:#379ad6;}.cls-4{fill:#dfebeb;}.cls-5{fill:#44b1e6;}.cls-6{fill:#3fb0e5;}.cls-7{fill:#f193bd;}.cls-8{fill:#e76aa5;}.cls-9{fill:#f6d949;}.cls-10{fill:#474174;}.cls-11{fill:#484275;}.cls-12{fill:#f0eff3;}.cls-13{fill:#ebeaf0;}.cls-14{fill:#e30613;stroke:#fff;stroke-miterlimit:10;}.cls-15{font-size:14px;fill:#fff;font-family:MyriadPro-Regular, Myriad Pro;}</style></defs><g id="Livello_2" data-name="Livello 2"><rect class="cls-1" y="5.97" width="42.35" height="42.35" rx="5"/></g><g id="shark"><path class="cls-2" d="M6,29.46a5.41,5.41,0,0,1,2.52-5.4c2.44-1.59,5.22-2,8-2.37a3.11,3.11,0,0,1,.43,0,1.85,1.85,0,0,0,2.22-1.59,14.87,14.87,0,0,1,2.08-4.46,7.24,7.24,0,0,1,1.27-1.54c.34-.31.71-.69,1.2-.49s.41.76.37,1.2c-.18,1.81-.28,3.63-.44,5.44-.09,1.11.37,1.39,1.32,1.43a21.51,21.51,0,0,1,6,1.07,14.66,14.66,0,0,1,2,.86,5.53,5.53,0,0,1,3.35,5.88c-.27,0-.54,0-.68.29A8.52,8.52,0,0,0,35,27.17c-1.33-2.21-3.77-2.25-5.15-.07A8.31,8.31,0,0,0,29,29.46c-4.51,0-9,0-13.53,0-1,0-1.87,0-1.91,1.28a6.21,6.21,0,0,0-.8-3.72,2.81,2.81,0,0,0-5,.1A6.09,6.09,0,0,0,7,30.3C6.73,29.93,6.76,29.27,6,29.46Z" transform="translate(0 -1.68)"/><path class="cls-3" d="M13.58,30.72c0-1.3.9-1.29,1.91-1.28,4.51,0,9,0,13.53,0A5.85,5.85,0,0,0,30,32.94a2.79,2.79,0,0,0,4.76.09,6.48,6.48,0,0,0,.87-1.89c.29-.27.18-.61.16-.93l0-.46c.14-.3.41-.29.68-.29a16.81,16.81,0,0,1-1.56,7.11c-.16.34-.44.65-.32,1.07-.45.26-.87.65-.76,1.15s.7.47,1.14.59a6.85,6.85,0,0,0,1.35.18,17.67,17.67,0,0,0,5.27-.63c-1.77,2.12-6.24,2.77-8.71,1.25.45-.6.32-1-.29-1.48a27.73,27.73,0,0,1-2.23-2.24,9,9,0,0,0-4.18-2.34,23.6,23.6,0,0,0-7.77-.39,10.68,10.68,0,0,0-7.67,4.12,3.76,3.76,0,0,1-.89.89c-.67.39-.73.83-.3,1.41a8.58,8.58,0,0,1-8.33-1.23c-.08-.07-.09-.23-.14-.35.26-.08.47.08.7.15a11,11,0,0,0,5.48.5c1.62-.31,1.61-.36.63-1.77A24.93,24.93,0,0,1,6,30.29c0-.28,0-.55,0-.83.74-.19.71.47.94.84a5.23,5.23,0,0,0,1.33,3.12,2.63,2.63,0,0,0,4,0A5.22,5.22,0,0,0,13.58,30.72Z" transform="translate(0 -1.68)"/><path class="cls-4" d="M9.49,40.15c-.43-.58-.37-1,.3-1.41a3.76,3.76,0,0,0,.89-.89,10.68,10.68,0,0,1,7.67-4.12,23.6,23.6,0,0,1,7.77.39,9,9,0,0,1,4.18,2.34,27.73,27.73,0,0,0,2.23,2.24c.61.48.74.88.29,1.48a14.81,14.81,0,0,1-8.21,4.11,11.18,11.18,0,0,1-2.39-.09c-1.15-.05-2.33.21-3.45.13a13,13,0,0,1-7.27-2.51C10.81,41.28,10.16,40.71,9.49,40.15Zm8,1.93a15.87,15.87,0,0,0,1.64.33c3.33.32,6.5,0,9.23-2.2a6.53,6.53,0,0,0,.63-.55c.54-.58,1.4-1.18.95-2s-1.4-.39-2.12-.3a51.24,51.24,0,0,1-6.18.57,46.49,46.49,0,0,1-7.55-.59c-.7-.1-1.7-.49-2.09.41-.3.68.39,1.25.87,1.76,0,0,.13,0,.2.05C14.2,41,15.85,41.58,17.53,42.08Z" transform="translate(0 -1.68)"/><path class="cls-5" d="M41.53,38.93a17.67,17.67,0,0,1-5.27.63,6.85,6.85,0,0,1-1.35-.18c-.44-.12-1-.12-1.14-.59s.31-.89.76-1.15c2.21.71,4.49.41,6.75.44.34,0,1.1-.24.63.63l-.19.17A.41.41,0,0,1,41.53,38.93Z" transform="translate(0 -1.68)"/><path class="cls-6" d="M7.83,37.45c1,1.41,1,1.46-.63,1.77a11,11,0,0,1-5.48-.5c-.23-.07-.44-.23-.7-.15l0,0c-.06-.2-.23-.24-.41-.25-.2-.66.35-.43.6-.44,1.16,0,2.32,0,3.48,0A10.23,10.23,0,0,0,7.83,37.45Z" transform="translate(0 -1.68)"/><path class="cls-3" d="M.63,38.29c.18,0,.35.05.41.25C.79,38.65.7,38.49.63,38.29Z" transform="translate(0 -1.68)"/><path class="cls-3" d="M41.72,38.88l.19-.17Z" transform="translate(0 -1.68)"/><path class="cls-2" d="M35.59,31.14a1.37,1.37,0,0,1,.16-.93C35.77,30.53,35.88,30.87,35.59,31.14Z" transform="translate(0 -1.68)"/><path class="cls-7" d="M13.11,39.53c-.07,0-.16,0-.2-.05-.48-.51-1.17-1.08-.87-1.76.39-.9,1.39-.51,2.09-.41a46.49,46.49,0,0,0,7.55.59,51.24,51.24,0,0,0,6.18-.57c.72-.09,1.7-.5,2.12.3s-.41,1.45-.95,2a6.53,6.53,0,0,1-.63.55,19.84,19.84,0,0,0-6.24-1.06,37.44,37.44,0,0,0-7.83.61A.74.74,0,0,0,13.11,39.53Z" transform="translate(0 -1.68)"/><path class="cls-8" d="M14.33,39.76a37.44,37.44,0,0,1,7.83-.61,19.84,19.84,0,0,1,6.24,1.06c-2.73,2.15-5.9,2.52-9.23,2.2a15.87,15.87,0,0,1-1.64-.33c-.18-.5.16-1.44-.93-1.22-.89.18-1.32-1-2.23-.68Z" transform="translate(0 -1.68)"/><path class="cls-9" d="M35.13,29.79a3.26,3.26,0,0,1-.23,1.38,2.72,2.72,0,0,1-2.56,2.12,2.78,2.78,0,0,1-2.4-2.19,4.22,4.22,0,0,1,.65-4,2.21,2.21,0,0,1,3.8.14A4.23,4.23,0,0,1,35.13,29.79Zm-2.64-2.53a.87.87,0,0,0-1,.18,2.94,2.94,0,0,0-.13,4.11A1.74,1.74,0,0,0,34,31.3,3.19,3.19,0,0,0,34,28C33.71,27.51,33.3,27,32.49,27.26Z" transform="translate(0 -1.68)"/><path class="cls-9" d="M13.08,29.8a4.43,4.43,0,0,1-1,2.68,2.21,2.21,0,0,1-3.5,0,4.38,4.38,0,0,1,.08-5.52,2.14,2.14,0,0,1,3.26-.09A4.21,4.21,0,0,1,13.08,29.8ZM8.91,29v0a2.11,2.11,0,0,0,.27,2.5,1.66,1.66,0,0,0,2.34.19,3.1,3.1,0,0,0-.06-4.25,1.4,1.4,0,0,0-1.84-.11C9.09,27.72,8.43,28.17,8.91,29Z" transform="translate(0 -1.68)"/><path class="cls-10" d="M32.49,27.26c.81-.27,1.22.25,1.51.75a3.19,3.19,0,0,1,0,3.29,1.74,1.74,0,0,1-2.6.25,2.94,2.94,0,0,1,.13-4.11A.87.87,0,0,1,32.49,27.26Zm1.44,1.81a.62.62,0,0,0-.63-.68.61.61,0,0,0-.66.66.6.6,0,0,0,.58.63A.62.62,0,0,0,33.93,29.07Z" transform="translate(0 -1.68)"/><path class="cls-11" d="M8.91,29c-.48-.86.18-1.31.71-1.71a1.4,1.4,0,0,1,1.84.11,3.1,3.1,0,0,1,.06,4.25,1.66,1.66,0,0,1-2.34-.19A2.11,2.11,0,0,1,8.91,29c.16.4.35.78.89.67a.61.61,0,0,0,.48-.5.58.58,0,0,0-.33-.69C9.38,28.2,9.13,28.6,8.91,29Z" transform="translate(0 -1.68)"/><path class="cls-12" d="M8.91,29c.22-.43.47-.83,1-.56a.58.58,0,0,1,.33.69.61.61,0,0,1-.48.5c-.54.11-.73-.27-.89-.67Z" transform="translate(0 -1.68)"/><path class="cls-13" d="M33.93,29.07a.62.62,0,0,1-.71.61.6.6,0,0,1-.58-.63.61.61,0,0,1,.66-.66A.62.62,0,0,1,33.93,29.07Z" transform="translate(0 -1.68)"/><circle class="cls-14" cx="38.59" cy="9.84" r="9.34"/><text class="cls-15" transform="translate(34.83 14.41)">1</text></g></svg>